<?xml version="1.0"?>
<svg width="200" height="200" xmlns="http://www.w3.org/2000/svg" xmlns:svg="http://www.w3.org/2000/svg" preserveAspectRatio="xMidYMid meet" version="1.0">
 <g class="layer">
  <title>Layer 1</title>
  <path d="m2.4,97.9c0,-37.02 43.19,-67 96.5,-67c53.31,0 96.5,29.98 96.5,67c0,37.02 -43.19,67 -96.5,67c-53.31,0 -96.5,-29.98 -96.5,-67z" fill="#fc9404" id="svg_4" stroke="#000000"/>
  <path d="m24.37,56.65l17.41,5.38l14.87,3.16l20.57,-3.8l17.72,-6.33l12.03,-1.27l16.46,5.06l16.46,4.43l20.89,-1.27l14.24,-5.06l12.03,12.03l8.54,20.89l-40.51,12.97l-0.95,10.13l-11.71,4.75l-4.43,6.01c0,0 -7.28,4.75 -7.59,4.75c-0.32,0 -4.75,3.48 -4.75,3.16c0,-0.32 -7.28,3.8 -7.28,3.8c0,0 -6.96,2.22 -7.28,2.22c-0.32,0 -10.76,0 -10.76,0c0,0 -7.59,0.95 -7.91,0.63c-0.32,-0.32 -7.91,-2.85 -7.91,-2.85c0,0 -8.23,-3.8 -8.54,-3.8c-0.32,0 -7.28,-2.85 -7.59,-2.85c-0.32,0 -6.65,-4.11 -7.28,-4.43c-0.63,-0.32 -4.43,-6.01 -4.43,-6.33c0,-0.32 -7.91,-3.16 -8.23,-3.16c-0.32,0 -2.85,-4.75 -2.85,-4.75c0,0 -0.32,-4.75 -0.32,-4.75c0,0 -4.75,-4.75 -4.75,-5.06c0,-0.32 -12.34,-3.48 -12.34,-3.48c0,0 -8.54,-3.8 -8.54,-3.8c0,0 -7.59,-0.63 -7.91,-0.63c-0.32,0 -7.91,-4.11 -8.23,-4.43c-0.32,-0.32 0.32,-5.7 0,-5.7c-0.32,0 7.59,-12.97 7.59,-12.97c0,0 6.65,-8.86 6.65,-9.18" fill="#ffffff" id="svg_6" stroke="#000000" transform="matrix(1 0 0 1 0 0)"/>
  <path d="m85.3,32c-45.4,4.7 -79.2,27.2 -85.4,56.7c-2.5,12.2 0.5,28.8 7.3,40.4c13.1,22.2 43.2,37.2 80,39.8c61.9,4.4 108.8,-23.3 111.5,-65.9c0.7,-10.5 -0.8,-17.8 -5.3,-26.9c-12.7,-25.4 -47.3,-42.6 -89.4,-44.5c-5.8,-0.2 -14.2,-0.1 -18.7,0.4zm33,4.5c6.3,0.8 15.5,2.6 20.3,4c8.8,2.5 26.6,10.7 31.4,14.4l2.5,2l-3,1.1c-14.2,5.4 -28.9,5.3 -43,-0.3c-12.5,-5 -17.4,-6 -26.3,-5.5c-7.3,0.5 -9.3,1.1 -18.7,6.1c-1.6,0.9 -7.5,2.5 -13.1,3.7c-9.6,2 -10.3,2.1 -17,0.5c-11.8,-2.7 -23.5,-6.5 -22.9,-7.5c0.9,-1.5 12.8,-7.9 19.6,-10.6c21.6,-8.4 45.7,-11.1 70.2,-7.9zm4.9,23.9c9.1,3.7 17.4,5.6 24.9,5.6c6.1,0 18,-2.5 23.5,-4.9l4.3,-1.9l6,6.3c5.5,6 11,15.4 12.4,21.5c0.6,2.5 0.3,2.6 -9.6,5.1c-5.6,1.5 -15.1,4.5 -21.1,6.8c-9,3.4 -11.2,3.9 -12.5,2.8c-0.9,-0.6 -7.9,-6.6 -15.6,-13.2c-26.7,-23 -28.8,-24.2 -37.1,-21c-2.5,0.9 -7.5,3.9 -11,6.6c-9.2,7.1 -14.7,8.6 -19,5.5c-1.8,-1.4 -1.5,-1.9 6,-9.5c4.3,-4.4 10,-9.1 12.6,-10.5c9.6,-5.2 22.4,-5 36.2,0.8zm-92.1,0.1c13.5,4.9 22.9,6.7 30.4,6.1c3.9,-0.3 8.4,-0.8 10,-1.2c3,-0.6 3,-0.6 -1.6,4.2c-5.1,5.4 -6.9,8.2 -6.2,10.2c0.8,2.2 6,4.2 11,4.2c5.1,0 5.2,-0.1 18.8,-9.5c7.2,-5 12.3,-5.4 17.8,-1.5c9.5,6.8 40.8,34.6 41.4,36.8c0.9,3.7 -2.8,6.7 -7.8,6.3c-0.9,0 -5.2,-3.3 -9.5,-7.1c-4.3,-3.9 -8.5,-7 -9.3,-7c-0.8,0 2,3.5 6.2,7.9c8.1,8.3 9.4,11.4 6,14.3c-4.6,3.9 -7.1,3.2 -14.9,-4.4c-7.3,-7.1 -8.8,-5.6 -2,2c3.1,3.5 5.6,6.8 5.6,7.4c0,2.1 -3.3,4.8 -5.7,4.8c-1.5,0 -4.6,-1.9 -8,-5c-3.1,-2.7 -6,-4.7 -6.5,-4.4c-0.4,0.3 1.2,3 3.8,5.9l4.6,5.5l-2.4,1.1c-1.8,0.8 -3.6,0.8 -6.5,0c-4,-1.1 -4.1,-1.1 -3.6,-5.4c0.6,-5.8 -2.3,-10.2 -7.7,-11.8c-3.2,-1 -4,-1.7 -4,-3.5c0,-1.3 -1.2,-3.8 -2.8,-5.5c-2.1,-2.4 -3.7,-3.1 -6.8,-3.3c-2.5,-0.1 -5.2,-1.1 -7,-2.5c-2.5,-2 -3.7,-2.2 -8.4,-1.8c-3.9,0.3 -6.2,0 -7.5,-0.9c-2.4,-1.7 -7.6,-1.8 -9.9,-0.1c-1.4,1 -2.9,0.7 -9.4,-2.5c-4.3,-2.1 -14,-5.4 -21.5,-7.5c-15.8,-4.2 -15.5,-3.8 -10.6,-14c2.6,-5.4 14.8,-20.3 16.7,-20.3c0.2,0 3.6,1.1 7.3,2.5zm-14.2,35.5c6.3,1.7 14.8,4.5 19,6.3l7.6,3.2l0.6,4.9c0.6,5.5 4.2,9.6 8.4,9.6c1.7,0 2.9,0.9 4,2.9c1.9,3.8 5.2,6.1 8.6,6.1c1.7,0 3.9,1.1 5.7,3c2.2,2.2 4,3 6.4,3c2.5,0 4.2,0.8 6.3,3c3.7,3.8 8.5,4.8 13.4,2.6c2.9,-1.3 4.3,-1.5 6.5,-0.7c4,1.6 9.8,1.3 12.5,-0.5c1.3,-0.9 3.8,-1.8 5.5,-1.9c3.8,-0.2 8.3,-3 9.1,-5.6c0.4,-1.2 1.6,-1.9 3.3,-1.9c4.2,0 9.2,-3.5 9.9,-7c0.4,-2.3 1.1,-3 2.9,-3c6,0 10.8,-5.6 9.7,-11.2c-0.5,-2.5 -0.1,-3 4.3,-4.9c5.6,-2.4 25.1,-8.4 30.7,-9.4l3.7,-0.7l0,4.6c0,13.1 -9.7,28.6 -24.5,39.1c-17.8,12.6 -39.1,19.2 -66,20.2c-47.9,1.8 -89.3,-18.4 -99.5,-48.6c-2.3,-6.9 -2.7,-16.1 -0.7,-16.1c0.6,0 6.3,1.4 12.6,3zm41,10.9l2.7,2.9l2.4,-2c3.5,-2.9 7.9,-2 10.6,2c1.3,1.8 2.5,2.8 2.9,2.2c1.1,-1.8 7.4,-1.1 9.6,1.1c1.7,1.7 2,2.9 1.5,6l-0.6,3.8l3.9,-0.2c6.7,-0.2 10.6,5.4 7.7,11.2c-1.7,3.1 -3.4,4.1 -7.4,4.1c-3.1,0 -7.2,-3.6 -7.2,-6.3c0,-1.4 -0.4,-1.7 -1.7,-1.2c-4,1.7 -6,1.6 -8.6,-0.5c-1.5,-1.2 -2.7,-3 -2.7,-4c0,-1.7 -0.4,-1.8 -2.5,-1c-4.8,1.8 -9.7,-1.7 -9.9,-7c-0.1,-2.3 -0.5,-2.9 -1.6,-2.4c-3.9,1.6 -5,1.5 -7.4,-1c-3.2,-3.1 -3.3,-5 -0.1,-8.1c3.1,-3.2 5.1,-3.1 8.4,0.4z" fill="#303672" id="svg_2" stroke="#000000" transform="matrix(1 0 0 1 0 0)"/>
 </g>
</svg>